<mxfile host="app.diagrams.net" modified="2022-09-10T16:01:43.113Z" agent="5.0 (Windows)" etag="9uIR3CldYZmAb0BhJJdd" version="20.3.0" type="github">
  <diagram name="Page-1" id="e3a06f82-3646-2815-327d-82caf3d4e204">
    <mxGraphModel dx="2062" dy="1140" grid="1" gridSize="10" guides="1" tooltips="1" connect="1" arrows="1" fold="1" page="1" pageScale="1.5" pageWidth="1169" pageHeight="826" background="none" math="0" shadow="0">
      <root>
        <mxCell id="0" style=";html=1;" />
        <mxCell id="1" style=";html=1;" parent="0" />
        <mxCell id="QidPckRFuSMxhucSFbGx-13" value="" style="rounded=0;whiteSpace=wrap;html=1;fontSize=39;fillColor=#d5e8d4;strokeColor=#82b366;" vertex="1" parent="1">
          <mxGeometry x="610" y="199.5" width="460" height="740" as="geometry" />
        </mxCell>
        <mxCell id="QidPckRFuSMxhucSFbGx-7" value="" style="endArrow=none;html=1;rounded=0;fontSize=39;" edge="1" parent="1">
          <mxGeometry width="50" height="50" relative="1" as="geometry">
            <mxPoint x="480" y="440" as="sourcePoint" />
            <mxPoint x="640" y="440" as="targetPoint" />
          </mxGeometry>
        </mxCell>
        <mxCell id="QidPckRFuSMxhucSFbGx-4" value="" style="endArrow=none;html=1;rounded=0;fontSize=39;entryX=0;entryY=0.5;entryDx=0;entryDy=0;" edge="1" parent="1" source="QidPckRFuSMxhucSFbGx-8" target="QidPckRFuSMxhucSFbGx-21">
          <mxGeometry width="50" height="50" relative="1" as="geometry">
            <mxPoint x="1180" y="360" as="sourcePoint" />
            <mxPoint x="1240" y="550" as="targetPoint" />
          </mxGeometry>
        </mxCell>
        <mxCell id="QidPckRFuSMxhucSFbGx-5" value="" style="endArrow=none;html=1;rounded=0;fontSize=39;entryX=0;entryY=0.5;entryDx=0;entryDy=0;startArrow=none;" edge="1" parent="1" source="QidPckRFuSMxhucSFbGx-8" target="QidPckRFuSMxhucSFbGx-22">
          <mxGeometry width="50" height="50" relative="1" as="geometry">
            <mxPoint x="1170" y="520" as="sourcePoint" />
            <mxPoint x="1370" y="334.06051973691274" as="targetPoint" />
          </mxGeometry>
        </mxCell>
        <mxCell id="6a7d8f32e03d9370-11" value="" style="verticalLabelPosition=bottom;aspect=fixed;html=1;verticalAlign=top;strokeColor=none;shape=mxgraph.citrix.xenapp_server;fillColor=#66B2FF;gradientColor=#0066CC;fontSize=14;" parent="1" vertex="1">
          <mxGeometry x="759.61" y="339.5" width="170.79" height="200" as="geometry" />
        </mxCell>
        <mxCell id="6a7d8f32e03d9370-29" value="Client" style="verticalLabelPosition=top;aspect=fixed;html=1;verticalAlign=bottom;strokeColor=none;shape=mxgraph.citrix.thin_client;fillColor=#66B2FF;gradientColor=#0066CC;fontSize=14;labelPosition=center;align=center;" parent="1" vertex="1">
          <mxGeometry x="1571" y="250" width="71" height="71" as="geometry" />
        </mxCell>
        <mxCell id="QidPckRFuSMxhucSFbGx-11" value="" style="endArrow=none;html=1;rounded=0;fontSize=39;startArrow=none;" edge="1" parent="1" source="QidPckRFuSMxhucSFbGx-19" target="QidPckRFuSMxhucSFbGx-8">
          <mxGeometry width="50" height="50" relative="1" as="geometry">
            <mxPoint x="1060" y="440" as="sourcePoint" />
            <mxPoint x="1090" y="444" as="targetPoint" />
          </mxGeometry>
        </mxCell>
        <mxCell id="6a7d8f32e03d9370-62" value="Basic Architecture" style="text;strokeColor=none;fillColor=none;html=1;fontSize=44;fontStyle=1;verticalAlign=middle;align=center;" parent="1" vertex="1">
          <mxGeometry x="539.7" y="40" width="861" height="40" as="geometry" />
        </mxCell>
        <mxCell id="QidPckRFuSMxhucSFbGx-1" value="&lt;font style=&quot;font-size: 39px;&quot;&gt;Internet&lt;/font&gt;" style="ellipse;shape=cloud;whiteSpace=wrap;html=1;" vertex="1" parent="1">
          <mxGeometry x="200" y="350" width="320" height="160" as="geometry" />
        </mxCell>
        <mxCell id="QidPckRFuSMxhucSFbGx-2" value="Client" style="verticalLabelPosition=top;aspect=fixed;html=1;verticalAlign=bottom;strokeColor=none;shape=mxgraph.citrix.thin_client;fillColor=#66B2FF;gradientColor=#0066CC;fontSize=14;labelPosition=center;align=center;" vertex="1" parent="1">
          <mxGeometry x="1571" y="549" width="71" height="71" as="geometry" />
        </mxCell>
        <mxCell id="QidPckRFuSMxhucSFbGx-12" value="Internal Servers and Processes" style="text;strokeColor=none;fillColor=none;html=1;fontSize=24;fontStyle=1;verticalAlign=middle;align=center;" vertex="1" parent="1">
          <mxGeometry x="735" y="579.5" width="220" height="30" as="geometry" />
        </mxCell>
        <mxCell id="QidPckRFuSMxhucSFbGx-14" value="&lt;div&gt;Server 2019 &lt;br&gt;&lt;/div&gt;&lt;div&gt;Domain Controller&lt;br&gt; &lt;/div&gt;" style="text;strokeColor=none;fillColor=none;html=1;fontSize=24;fontStyle=1;verticalAlign=middle;align=center;" vertex="1" parent="1">
          <mxGeometry x="414.5" y="250" width="861" height="40" as="geometry" />
        </mxCell>
        <mxCell id="QidPckRFuSMxhucSFbGx-8" value="&lt;div style=&quot;font-size: 30px;&quot;&gt;&lt;font style=&quot;font-size: 30px;&quot;&gt;VMWare &lt;br&gt;&lt;/font&gt;&lt;/div&gt;&lt;div style=&quot;font-size: 30px;&quot;&gt;&lt;font style=&quot;font-size: 30px;&quot;&gt;&lt;font style=&quot;font-size: 30px;&quot;&gt;Networking&lt;/font&gt;&lt;br&gt;&lt;/font&gt;&lt;/div&gt;" style="rounded=0;whiteSpace=wrap;html=1;fontSize=39;fillColor=#fff2cc;strokeColor=#d6b656;" vertex="1" parent="1">
          <mxGeometry x="1150" y="280" width="220" height="320" as="geometry" />
        </mxCell>
        <mxCell id="QidPckRFuSMxhucSFbGx-16" value="&lt;ul style=&quot;font-size: 21px;&quot;&gt;&lt;li&gt;&lt;b&gt;&lt;font style=&quot;font-size: 21px;&quot;&gt;Domain / AD DS&lt;/font&gt;&lt;/b&gt;&lt;/li&gt;&lt;ul&gt;&lt;li&gt;&lt;font style=&quot;font-size: 21px;&quot;&gt;FQDN: mydomain.com&lt;br&gt;&lt;/font&gt;&lt;/li&gt;&lt;/ul&gt;&lt;li&gt;&lt;font style=&quot;font-size: 21px;&quot;&gt;&lt;b&gt;RAS / NAT &lt;/b&gt;&lt;br&gt;&lt;/font&gt;&lt;/li&gt;&lt;ul&gt;&lt;li&gt;&lt;font style=&quot;font-size: 21px;&quot;&gt;Outside: Internet&lt;/font&gt;&lt;/li&gt;&lt;li&gt;&lt;font style=&quot;font-size: 21px;&quot;&gt;Inside: Internal&lt;/font&gt;&lt;/li&gt;&lt;/ul&gt;&lt;li&gt;&lt;b&gt;&lt;font style=&quot;font-size: 21px;&quot;&gt;DHCP (1 Scope)&lt;/font&gt;&lt;/b&gt;&lt;/li&gt;&lt;ul&gt;&lt;li&gt;&lt;font style=&quot;font-size: 21px;&quot;&gt;Range: 172.16.0.100-200&lt;/font&gt;&lt;/li&gt;&lt;li&gt;&lt;font style=&quot;font-size: 21px;&quot;&gt;Mask: 255.255.255.0&lt;/font&gt;&lt;/li&gt;&lt;li&gt;&lt;font style=&quot;font-size: 21px;&quot;&gt;Gate: 172.168.0.1&lt;/font&gt;&lt;/li&gt;&lt;li&gt;&lt;font style=&quot;font-size: 21px;&quot;&gt;DNA: 172.16.0.1&lt;br&gt;&lt;/font&gt;&lt;/li&gt;&lt;/ul&gt;&lt;/ul&gt;" style="text;strokeColor=none;fillColor=none;html=1;whiteSpace=wrap;verticalAlign=top;overflow=hidden;fontSize=30;" vertex="1" parent="1">
          <mxGeometry x="659.81" y="620" width="370.39" height="340" as="geometry" />
        </mxCell>
        <mxCell id="QidPckRFuSMxhucSFbGx-17" value="&lt;div&gt;NIC&lt;/div&gt;&lt;div&gt;Internet&lt;br&gt;&lt;/div&gt;" style="rounded=1;whiteSpace=wrap;html=1;fontSize=21;" vertex="1" parent="1">
          <mxGeometry x="639.61" y="409.5" width="120" height="60" as="geometry" />
        </mxCell>
        <mxCell id="QidPckRFuSMxhucSFbGx-19" value="&lt;div&gt;NIC&lt;/div&gt;&lt;div&gt;Internal&lt;br&gt;&lt;/div&gt;" style="rounded=1;whiteSpace=wrap;html=1;fontSize=21;" vertex="1" parent="1">
          <mxGeometry x="910.2" y="410" width="120" height="60" as="geometry" />
        </mxCell>
        <mxCell id="QidPckRFuSMxhucSFbGx-20" value="" style="endArrow=none;html=1;rounded=0;fontSize=39;" edge="1" parent="1" target="QidPckRFuSMxhucSFbGx-19">
          <mxGeometry width="50" height="50" relative="1" as="geometry">
            <mxPoint x="1060" y="440" as="sourcePoint" />
            <mxPoint x="1150" y="440" as="targetPoint" />
          </mxGeometry>
        </mxCell>
        <mxCell id="QidPckRFuSMxhucSFbGx-21" value="&lt;div&gt;NIC&lt;/div&gt;&lt;div&gt;Internal&lt;br&gt;&lt;/div&gt;" style="rounded=1;whiteSpace=wrap;html=1;fontSize=21;" vertex="1" parent="1">
          <mxGeometry x="1451" y="261" width="120" height="60" as="geometry" />
        </mxCell>
        <mxCell id="QidPckRFuSMxhucSFbGx-22" value="&lt;div&gt;NIC&lt;/div&gt;&lt;div&gt;Internal&lt;br&gt;&lt;/div&gt;" style="rounded=1;whiteSpace=wrap;html=1;fontSize=21;" vertex="1" parent="1">
          <mxGeometry x="1460" y="554.5" width="120" height="60" as="geometry" />
        </mxCell>
        <mxCell id="QidPckRFuSMxhucSFbGx-23" value="&lt;div&gt;&lt;font color=&quot;#FF00FF&quot;&gt;IP&lt;/font&gt;: 172.16.0.1&lt;/div&gt;&lt;div&gt;&lt;font color=&quot;#FF00FF&quot;&gt;Mask&lt;/font&gt;: 255.255.255.0&lt;/div&gt;&lt;div&gt;&lt;font color=&quot;#FF00FF&quot;&gt;Gateway&lt;/font&gt;: &amp;lt;Empty&amp;gt;&lt;/div&gt;&lt;div&gt;&lt;font color=&quot;#FF00FF&quot;&gt;DNS&lt;/font&gt;: 127.0.0.1&lt;br&gt;&lt;/div&gt;" style="text;strokeColor=none;fillColor=none;html=1;whiteSpace=wrap;verticalAlign=top;overflow=hidden;fontSize=14;" vertex="1" parent="1">
          <mxGeometry x="920" y="321" width="189.6" height="160" as="geometry" />
        </mxCell>
        <mxCell id="QidPckRFuSMxhucSFbGx-24" value="Title" style="text;strokeColor=none;fillColor=none;html=1;fontSize=24;fontStyle=1;verticalAlign=middle;align=center;fontColor=#FF00FF;" vertex="1" parent="1">
          <mxGeometry x="1380" y="420" width="100" height="40" as="geometry" />
        </mxCell>
        <mxCell id="QidPckRFuSMxhucSFbGx-25" value="Windows 10" style="text;strokeColor=none;fillColor=none;html=1;fontSize=24;fontStyle=1;verticalAlign=middle;align=center;fontColor=#000000;" vertex="1" parent="1">
          <mxGeometry x="1510" y="190" width="100" height="40" as="geometry" />
        </mxCell>
        <mxCell id="QidPckRFuSMxhucSFbGx-26" value="Windows 10" style="text;strokeColor=none;fillColor=none;html=1;fontSize=24;fontStyle=1;verticalAlign=middle;align=center;fontColor=#000000;" vertex="1" parent="1">
          <mxGeometry x="1510" y="490" width="100" height="40" as="geometry" />
        </mxCell>
        <mxCell id="QidPckRFuSMxhucSFbGx-27" value="&lt;div&gt;Will get addressing &lt;br&gt;&lt;/div&gt;&lt;div&gt;from Home router&lt;/div&gt;" style="text;strokeColor=none;fillColor=none;html=1;whiteSpace=wrap;verticalAlign=top;overflow=hidden;fontSize=14;align=center;" vertex="1" parent="1">
          <mxGeometry x="644.61" y="321" width="110" height="80" as="geometry" />
        </mxCell>
      </root>
    </mxGraphModel>
  </diagram>
</mxfile>
